<mxfile host="app.diagrams.net" modified="2022-02-23T14:58:20.931Z" agent="5.0 (Windows NT 10.0; Win64; x64) AppleWebKit/537.36 (KHTML, like Gecko) Chrome/98.0.4758.102 Safari/537.36" etag="yaEM6kH5nEO_VbOYFaL6" version="16.6.2" type="github">
  <diagram name="Page-1" id="9361dd3d-8414-5efd-6122-117bd74ce7a7">
    <mxGraphModel dx="2448" dy="1899" grid="1" gridSize="10" guides="1" tooltips="1" connect="1" arrows="1" fold="1" page="0" pageScale="1.5" pageWidth="826" pageHeight="1169" background="none" math="0" shadow="0">
      <root>
        <mxCell id="0" />
        <mxCell id="1" parent="0" />
        <mxCell id="0QkTnSWF0Qog_tkl2oPD-94" value="Services" style="swimlane;fontStyle=0;childLayout=stackLayout;horizontal=1;startSize=26;fillColor=none;horizontalStack=0;resizeParent=1;resizeParentMax=0;resizeLast=0;collapsible=1;marginBottom=0;" parent="1" vertex="1">
          <mxGeometry x="-680" y="-390" width="140" height="150" as="geometry" />
        </mxCell>
        <mxCell id="0QkTnSWF0Qog_tkl2oPD-95" value="+ id:  int&#xa;&#xa;" style="text;strokeColor=none;fillColor=none;align=left;verticalAlign=top;spacingLeft=4;spacingRight=4;overflow=hidden;rotatable=0;points=[[0,0.5],[1,0.5]];portConstraint=eastwest;" parent="0QkTnSWF0Qog_tkl2oPD-94" vertex="1">
          <mxGeometry y="26" width="140" height="26" as="geometry" />
        </mxCell>
        <mxCell id="0QkTnSWF0Qog_tkl2oPD-96" value="+ formation: text" style="text;strokeColor=none;fillColor=none;align=left;verticalAlign=top;spacingLeft=4;spacingRight=4;overflow=hidden;rotatable=0;points=[[0,0.5],[1,0.5]];portConstraint=eastwest;" parent="0QkTnSWF0Qog_tkl2oPD-94" vertex="1">
          <mxGeometry y="52" width="140" height="26" as="geometry" />
        </mxCell>
        <mxCell id="0QkTnSWF0Qog_tkl2oPD-97" value="+ time: varchar&#xa;+ price: varchar&#xa;+ teacher_id : Teacher&#xa;+ videos_id: Videos" style="text;strokeColor=none;fillColor=none;align=left;verticalAlign=top;spacingLeft=4;spacingRight=4;overflow=hidden;rotatable=0;points=[[0,0.5],[1,0.5]];portConstraint=eastwest;" parent="0QkTnSWF0Qog_tkl2oPD-94" vertex="1">
          <mxGeometry y="78" width="140" height="72" as="geometry" />
        </mxCell>
        <mxCell id="0QkTnSWF0Qog_tkl2oPD-98" value="Instruments" style="swimlane;fontStyle=0;childLayout=stackLayout;horizontal=1;startSize=26;fillColor=none;horizontalStack=0;resizeParent=1;resizeParentMax=0;resizeLast=0;collapsible=1;marginBottom=0;" parent="1" vertex="1">
          <mxGeometry x="-680" y="-600" width="140" height="130" as="geometry" />
        </mxCell>
        <mxCell id="0QkTnSWF0Qog_tkl2oPD-99" value="+ id:  int&#xa;&#xa;" style="text;strokeColor=none;fillColor=none;align=left;verticalAlign=top;spacingLeft=4;spacingRight=4;overflow=hidden;rotatable=0;points=[[0,0.5],[1,0.5]];portConstraint=eastwest;" parent="0QkTnSWF0Qog_tkl2oPD-98" vertex="1">
          <mxGeometry y="26" width="140" height="26" as="geometry" />
        </mxCell>
        <mxCell id="0QkTnSWF0Qog_tkl2oPD-100" value="+ name: text" style="text;strokeColor=none;fillColor=none;align=left;verticalAlign=top;spacingLeft=4;spacingRight=4;overflow=hidden;rotatable=0;points=[[0,0.5],[1,0.5]];portConstraint=eastwest;" parent="0QkTnSWF0Qog_tkl2oPD-98" vertex="1">
          <mxGeometry y="52" width="140" height="26" as="geometry" />
        </mxCell>
        <mxCell id="0QkTnSWF0Qog_tkl2oPD-101" value="+ origin: text&#xa;+ mark_id : Mark&#xa;+ type_id: Type" style="text;strokeColor=none;fillColor=none;align=left;verticalAlign=top;spacingLeft=4;spacingRight=4;overflow=hidden;rotatable=0;points=[[0,0.5],[1,0.5]];portConstraint=eastwest;" parent="0QkTnSWF0Qog_tkl2oPD-98" vertex="1">
          <mxGeometry y="78" width="140" height="52" as="geometry" />
        </mxCell>
        <mxCell id="0QkTnSWF0Qog_tkl2oPD-102" value="Teacher" style="swimlane;fontStyle=0;childLayout=stackLayout;horizontal=1;startSize=26;fillColor=none;horizontalStack=0;resizeParent=1;resizeParentMax=0;resizeLast=0;collapsible=1;marginBottom=0;" parent="1" vertex="1">
          <mxGeometry x="-800" y="-800" width="150" height="160" as="geometry" />
        </mxCell>
        <mxCell id="0QkTnSWF0Qog_tkl2oPD-103" value="+ id:  int&#xa;&#xa;" style="text;strokeColor=none;fillColor=none;align=left;verticalAlign=top;spacingLeft=4;spacingRight=4;overflow=hidden;rotatable=0;points=[[0,0.5],[1,0.5]];portConstraint=eastwest;" parent="0QkTnSWF0Qog_tkl2oPD-102" vertex="1">
          <mxGeometry y="26" width="150" height="26" as="geometry" />
        </mxCell>
        <mxCell id="0QkTnSWF0Qog_tkl2oPD-104" value="+ first_name: text" style="text;strokeColor=none;fillColor=none;align=left;verticalAlign=top;spacingLeft=4;spacingRight=4;overflow=hidden;rotatable=0;points=[[0,0.5],[1,0.5]];portConstraint=eastwest;" parent="0QkTnSWF0Qog_tkl2oPD-102" vertex="1">
          <mxGeometry y="52" width="150" height="26" as="geometry" />
        </mxCell>
        <mxCell id="0QkTnSWF0Qog_tkl2oPD-105" value="+ last_name: text&#xa;+ age: int&#xa;+ address : varchar&#xa;+ phone_number: varchar&#xa;+ awards: varchar" style="text;strokeColor=none;fillColor=none;align=left;verticalAlign=top;spacingLeft=4;spacingRight=4;overflow=hidden;rotatable=0;points=[[0,0.5],[1,0.5]];portConstraint=eastwest;" parent="0QkTnSWF0Qog_tkl2oPD-102" vertex="1">
          <mxGeometry y="78" width="150" height="82" as="geometry" />
        </mxCell>
        <mxCell id="0QkTnSWF0Qog_tkl2oPD-106" value="Videos" style="swimlane;fontStyle=0;childLayout=stackLayout;horizontal=1;startSize=26;fillColor=none;horizontalStack=0;resizeParent=1;resizeParentMax=0;resizeLast=0;collapsible=1;marginBottom=0;" parent="1" vertex="1">
          <mxGeometry x="-190" y="-700" width="160" height="130" as="geometry" />
        </mxCell>
        <mxCell id="0QkTnSWF0Qog_tkl2oPD-107" value="+ id:  int&#xa;&#xa;" style="text;strokeColor=none;fillColor=none;align=left;verticalAlign=top;spacingLeft=4;spacingRight=4;overflow=hidden;rotatable=0;points=[[0,0.5],[1,0.5]];portConstraint=eastwest;" parent="0QkTnSWF0Qog_tkl2oPD-106" vertex="1">
          <mxGeometry y="26" width="160" height="26" as="geometry" />
        </mxCell>
        <mxCell id="0QkTnSWF0Qog_tkl2oPD-108" value="+ time: varchar" style="text;strokeColor=none;fillColor=none;align=left;verticalAlign=top;spacingLeft=4;spacingRight=4;overflow=hidden;rotatable=0;points=[[0,0.5],[1,0.5]];portConstraint=eastwest;" parent="0QkTnSWF0Qog_tkl2oPD-106" vertex="1">
          <mxGeometry y="52" width="160" height="26" as="geometry" />
        </mxCell>
        <mxCell id="0QkTnSWF0Qog_tkl2oPD-109" value="+ view_score: int&#xa;+ instrument_id: Instrument&#xa;+ teacher_id: Teacher" style="text;strokeColor=none;fillColor=none;align=left;verticalAlign=top;spacingLeft=4;spacingRight=4;overflow=hidden;rotatable=0;points=[[0,0.5],[1,0.5]];portConstraint=eastwest;" parent="0QkTnSWF0Qog_tkl2oPD-106" vertex="1">
          <mxGeometry y="78" width="160" height="52" as="geometry" />
        </mxCell>
        <mxCell id="0QkTnSWF0Qog_tkl2oPD-110" value="Mark" style="swimlane;fontStyle=0;childLayout=stackLayout;horizontal=1;startSize=26;fillColor=none;horizontalStack=0;resizeParent=1;resizeParentMax=0;resizeLast=0;collapsible=1;marginBottom=0;" parent="1" vertex="1">
          <mxGeometry x="-450" y="-410" width="140" height="78" as="geometry" />
        </mxCell>
        <mxCell id="0QkTnSWF0Qog_tkl2oPD-111" value="+ id:  int&#xa;&#xa;" style="text;strokeColor=none;fillColor=none;align=left;verticalAlign=top;spacingLeft=4;spacingRight=4;overflow=hidden;rotatable=0;points=[[0,0.5],[1,0.5]];portConstraint=eastwest;" parent="0QkTnSWF0Qog_tkl2oPD-110" vertex="1">
          <mxGeometry y="26" width="140" height="26" as="geometry" />
        </mxCell>
        <mxCell id="0QkTnSWF0Qog_tkl2oPD-112" value="+ name: varchar" style="text;strokeColor=none;fillColor=none;align=left;verticalAlign=top;spacingLeft=4;spacingRight=4;overflow=hidden;rotatable=0;points=[[0,0.5],[1,0.5]];portConstraint=eastwest;" parent="0QkTnSWF0Qog_tkl2oPD-110" vertex="1">
          <mxGeometry y="52" width="140" height="26" as="geometry" />
        </mxCell>
        <mxCell id="0QkTnSWF0Qog_tkl2oPD-114" value="Types" style="swimlane;fontStyle=0;childLayout=stackLayout;horizontal=1;startSize=26;fillColor=none;horizontalStack=0;resizeParent=1;resizeParentMax=0;resizeLast=0;collapsible=1;marginBottom=0;" parent="1" vertex="1">
          <mxGeometry x="-450" y="-310" width="140" height="78" as="geometry" />
        </mxCell>
        <mxCell id="0QkTnSWF0Qog_tkl2oPD-115" value="+ id:  int&#xa;&#xa;" style="text;strokeColor=none;fillColor=none;align=left;verticalAlign=top;spacingLeft=4;spacingRight=4;overflow=hidden;rotatable=0;points=[[0,0.5],[1,0.5]];portConstraint=eastwest;" parent="0QkTnSWF0Qog_tkl2oPD-114" vertex="1">
          <mxGeometry y="26" width="140" height="26" as="geometry" />
        </mxCell>
        <mxCell id="0QkTnSWF0Qog_tkl2oPD-116" value="+ name: varchar" style="text;strokeColor=none;fillColor=none;align=left;verticalAlign=top;spacingLeft=4;spacingRight=4;overflow=hidden;rotatable=0;points=[[0,0.5],[1,0.5]];portConstraint=eastwest;" parent="0QkTnSWF0Qog_tkl2oPD-114" vertex="1">
          <mxGeometry y="52" width="140" height="26" as="geometry" />
        </mxCell>
        <mxCell id="0QkTnSWF0Qog_tkl2oPD-118" value="Teacher_instrument" style="swimlane;fontStyle=0;childLayout=stackLayout;horizontal=1;startSize=26;fillColor=none;horizontalStack=0;resizeParent=1;resizeParentMax=0;resizeLast=0;collapsible=1;marginBottom=0;" parent="1" vertex="1">
          <mxGeometry x="-430" y="-810" width="160" height="98" as="geometry" />
        </mxCell>
        <mxCell id="0QkTnSWF0Qog_tkl2oPD-119" value="+ id:  int&#xa;&#xa;" style="text;strokeColor=none;fillColor=none;align=left;verticalAlign=top;spacingLeft=4;spacingRight=4;overflow=hidden;rotatable=0;points=[[0,0.5],[1,0.5]];portConstraint=eastwest;" parent="0QkTnSWF0Qog_tkl2oPD-118" vertex="1">
          <mxGeometry y="26" width="160" height="24" as="geometry" />
        </mxCell>
        <mxCell id="0QkTnSWF0Qog_tkl2oPD-120" value="+ teacher_id: Teacher&#xa;+ instrument_id: Instrument" style="text;strokeColor=none;fillColor=none;align=left;verticalAlign=top;spacingLeft=4;spacingRight=4;overflow=hidden;rotatable=0;points=[[0,0.5],[1,0.5]];portConstraint=eastwest;" parent="0QkTnSWF0Qog_tkl2oPD-118" vertex="1">
          <mxGeometry y="50" width="160" height="48" as="geometry" />
        </mxCell>
        <mxCell id="0QkTnSWF0Qog_tkl2oPD-122" value="Users" style="swimlane;fontStyle=0;childLayout=stackLayout;horizontal=1;startSize=26;fillColor=none;horizontalStack=0;resizeParent=1;resizeParentMax=0;resizeLast=0;collapsible=1;marginBottom=0;" parent="1" vertex="1">
          <mxGeometry x="-900" y="-600" width="140" height="138" as="geometry" />
        </mxCell>
        <mxCell id="0QkTnSWF0Qog_tkl2oPD-124" value="+ first_name: text" style="text;strokeColor=none;fillColor=none;align=left;verticalAlign=top;spacingLeft=4;spacingRight=4;overflow=hidden;rotatable=0;points=[[0,0.5],[1,0.5]];portConstraint=eastwest;" parent="0QkTnSWF0Qog_tkl2oPD-122" vertex="1">
          <mxGeometry y="26" width="140" height="26" as="geometry" />
        </mxCell>
        <mxCell id="0QkTnSWF0Qog_tkl2oPD-125" value="+ last_name: text&#xa;+ mail: varchar&#xa;+ roles: []&#xa;+ avatar: varchar" style="text;strokeColor=none;fillColor=none;align=left;verticalAlign=top;spacingLeft=4;spacingRight=4;overflow=hidden;rotatable=0;points=[[0,0.5],[1,0.5]];portConstraint=eastwest;" parent="0QkTnSWF0Qog_tkl2oPD-122" vertex="1">
          <mxGeometry y="52" width="140" height="60" as="geometry" />
        </mxCell>
        <mxCell id="0QkTnSWF0Qog_tkl2oPD-123" value="+ id:  int&#xa;&#xa;" style="text;strokeColor=none;fillColor=none;align=left;verticalAlign=top;spacingLeft=4;spacingRight=4;overflow=hidden;rotatable=0;points=[[0,0.5],[1,0.5]];portConstraint=eastwest;" parent="0QkTnSWF0Qog_tkl2oPD-122" vertex="1">
          <mxGeometry y="112" width="140" height="26" as="geometry" />
        </mxCell>
        <mxCell id="0QkTnSWF0Qog_tkl2oPD-126" style="edgeStyle=orthogonalEdgeStyle;rounded=0;orthogonalLoop=1;jettySize=auto;html=1;entryX=0.453;entryY=-0.026;entryDx=0;entryDy=0;entryPerimeter=0;fillColor=#dae8fc;strokeColor=#6c8ebf;" parent="1" source="0QkTnSWF0Qog_tkl2oPD-101" target="0QkTnSWF0Qog_tkl2oPD-110" edge="1">
          <mxGeometry relative="1" as="geometry" />
        </mxCell>
        <mxCell id="0QkTnSWF0Qog_tkl2oPD-127" value="1" style="text;html=1;align=center;verticalAlign=middle;resizable=0;points=[];autosize=1;strokeColor=none;fillColor=none;" parent="1" vertex="1">
          <mxGeometry x="-480" y="-520" width="20" height="20" as="geometry" />
        </mxCell>
        <mxCell id="0QkTnSWF0Qog_tkl2oPD-128" value="1" style="text;html=1;align=center;verticalAlign=middle;resizable=0;points=[];autosize=1;strokeColor=none;fillColor=none;" parent="1" vertex="1">
          <mxGeometry x="-480" y="-490" width="20" height="20" as="geometry" />
        </mxCell>
        <mxCell id="0QkTnSWF0Qog_tkl2oPD-129" style="edgeStyle=orthogonalEdgeStyle;rounded=0;orthogonalLoop=1;jettySize=auto;html=1;entryX=0;entryY=0.25;entryDx=0;entryDy=0;fillColor=#dae8fc;strokeColor=#6c8ebf;" parent="1" source="0QkTnSWF0Qog_tkl2oPD-101" target="0QkTnSWF0Qog_tkl2oPD-114" edge="1">
          <mxGeometry relative="1" as="geometry">
            <Array as="points">
              <mxPoint x="-495" y="-460" />
              <mxPoint x="-495" y="-290" />
            </Array>
          </mxGeometry>
        </mxCell>
        <mxCell id="0QkTnSWF0Qog_tkl2oPD-130" value="1" style="text;html=1;align=center;verticalAlign=middle;resizable=0;points=[];autosize=1;strokeColor=none;fillColor=none;" parent="1" vertex="1">
          <mxGeometry x="-540" y="-480" width="20" height="20" as="geometry" />
        </mxCell>
        <mxCell id="0QkTnSWF0Qog_tkl2oPD-131" value="1" style="text;html=1;align=center;verticalAlign=middle;resizable=0;points=[];autosize=1;strokeColor=none;fillColor=none;" parent="1" vertex="1">
          <mxGeometry x="-540" y="-460" width="20" height="20" as="geometry" />
        </mxCell>
        <mxCell id="CQLazfhLL2NqfbZ1QYaW-5" style="edgeStyle=orthogonalEdgeStyle;rounded=0;orthogonalLoop=1;jettySize=auto;html=1;entryX=1.005;entryY=0.084;entryDx=0;entryDy=0;entryPerimeter=0;fillColor=#dae8fc;strokeColor=#6c8ebf;" parent="1" source="0QkTnSWF0Qog_tkl2oPD-109" target="0QkTnSWF0Qog_tkl2oPD-102" edge="1">
          <mxGeometry relative="1" as="geometry">
            <Array as="points">
              <mxPoint x="-520" y="-560" />
              <mxPoint x="-520" y="-787" />
            </Array>
          </mxGeometry>
        </mxCell>
        <mxCell id="CQLazfhLL2NqfbZ1QYaW-12" style="edgeStyle=orthogonalEdgeStyle;rounded=0;orthogonalLoop=1;jettySize=auto;html=1;fillColor=#dae8fc;strokeColor=#6c8ebf;" parent="1" source="0QkTnSWF0Qog_tkl2oPD-109" edge="1">
          <mxGeometry relative="1" as="geometry">
            <mxPoint x="-540" y="-596" as="targetPoint" />
            <Array as="points">
              <mxPoint x="-540" y="-596" />
            </Array>
          </mxGeometry>
        </mxCell>
        <mxCell id="CQLazfhLL2NqfbZ1QYaW-13" value="0" style="text;html=1;align=center;verticalAlign=middle;resizable=0;points=[];autosize=1;strokeColor=none;fillColor=none;" parent="1" vertex="1">
          <mxGeometry x="-230" y="-620" width="20" height="20" as="geometry" />
        </mxCell>
        <mxCell id="CQLazfhLL2NqfbZ1QYaW-14" value="1" style="text;html=1;align=center;verticalAlign=middle;resizable=0;points=[];autosize=1;strokeColor=none;fillColor=none;" parent="1" vertex="1">
          <mxGeometry x="-230" y="-590" width="20" height="20" as="geometry" />
        </mxCell>
        <mxCell id="CQLazfhLL2NqfbZ1QYaW-19" value="1" style="text;html=1;align=center;verticalAlign=middle;resizable=0;points=[];autosize=1;strokeColor=none;fillColor=none;" parent="1" vertex="1">
          <mxGeometry x="-330" y="-580" width="20" height="20" as="geometry" />
        </mxCell>
        <mxCell id="CQLazfhLL2NqfbZ1QYaW-20" value="1" style="text;html=1;align=center;verticalAlign=middle;resizable=0;points=[];autosize=1;strokeColor=none;fillColor=none;" parent="1" vertex="1">
          <mxGeometry x="-330" y="-560" width="20" height="20" as="geometry" />
        </mxCell>
        <mxCell id="CQLazfhLL2NqfbZ1QYaW-22" style="edgeStyle=orthogonalEdgeStyle;rounded=0;orthogonalLoop=1;jettySize=auto;html=1;entryX=0.544;entryY=0.998;entryDx=0;entryDy=0;entryPerimeter=0;fillColor=#dae8fc;strokeColor=#6c8ebf;" parent="1" source="0QkTnSWF0Qog_tkl2oPD-97" target="0QkTnSWF0Qog_tkl2oPD-105" edge="1">
          <mxGeometry relative="1" as="geometry">
            <Array as="points">
              <mxPoint x="-718" y="-270" />
            </Array>
          </mxGeometry>
        </mxCell>
        <mxCell id="CQLazfhLL2NqfbZ1QYaW-23" value="1" style="text;html=1;align=center;verticalAlign=middle;resizable=0;points=[];autosize=1;strokeColor=none;fillColor=none;" parent="1" vertex="1">
          <mxGeometry x="-740" y="-410" width="20" height="20" as="geometry" />
        </mxCell>
        <mxCell id="CQLazfhLL2NqfbZ1QYaW-24" value="1" style="text;html=1;align=center;verticalAlign=middle;resizable=0;points=[];autosize=1;strokeColor=none;fillColor=none;" parent="1" vertex="1">
          <mxGeometry x="-720" y="-410" width="20" height="20" as="geometry" />
        </mxCell>
        <mxCell id="CQLazfhLL2NqfbZ1QYaW-25" style="edgeStyle=orthogonalEdgeStyle;rounded=0;orthogonalLoop=1;jettySize=auto;html=1;entryX=1;entryY=0.5;entryDx=0;entryDy=0;fillColor=#dae8fc;strokeColor=#6c8ebf;" parent="1" source="0QkTnSWF0Qog_tkl2oPD-120" target="0QkTnSWF0Qog_tkl2oPD-104" edge="1">
          <mxGeometry relative="1" as="geometry">
            <Array as="points">
              <mxPoint x="-540" y="-750" />
              <mxPoint x="-540" y="-735" />
            </Array>
          </mxGeometry>
        </mxCell>
        <mxCell id="CQLazfhLL2NqfbZ1QYaW-26" value="1" style="text;html=1;align=center;verticalAlign=middle;resizable=0;points=[];autosize=1;strokeColor=none;fillColor=none;" parent="1" vertex="1">
          <mxGeometry x="-450" y="-770" width="20" height="20" as="geometry" />
        </mxCell>
        <mxCell id="CQLazfhLL2NqfbZ1QYaW-27" value="N" style="text;html=1;align=center;verticalAlign=middle;resizable=0;points=[];autosize=1;strokeColor=none;fillColor=none;" parent="1" vertex="1">
          <mxGeometry x="-450" y="-750" width="20" height="20" as="geometry" />
        </mxCell>
        <mxCell id="CQLazfhLL2NqfbZ1QYaW-28" style="edgeStyle=orthogonalEdgeStyle;rounded=0;orthogonalLoop=1;jettySize=auto;html=1;fillColor=#dae8fc;strokeColor=#6c8ebf;" parent="1" source="0QkTnSWF0Qog_tkl2oPD-120" target="0QkTnSWF0Qog_tkl2oPD-98" edge="1">
          <mxGeometry relative="1" as="geometry">
            <mxPoint x="-330" y="-620" as="targetPoint" />
            <Array as="points">
              <mxPoint x="-250" y="-736" />
              <mxPoint x="-250" y="-666" />
              <mxPoint x="-600" y="-666" />
              <mxPoint x="-600" y="-620" />
              <mxPoint x="-610" y="-620" />
            </Array>
          </mxGeometry>
        </mxCell>
        <mxCell id="CQLazfhLL2NqfbZ1QYaW-29" value="1" style="text;html=1;align=center;verticalAlign=middle;resizable=0;points=[];autosize=1;strokeColor=none;fillColor=none;" parent="1" vertex="1">
          <mxGeometry x="-290" y="-690" width="20" height="20" as="geometry" />
        </mxCell>
        <mxCell id="CQLazfhLL2NqfbZ1QYaW-30" value="N" style="text;html=1;align=center;verticalAlign=middle;resizable=0;points=[];autosize=1;strokeColor=none;fillColor=none;" parent="1" vertex="1">
          <mxGeometry x="-290" y="-660" width="20" height="20" as="geometry" />
        </mxCell>
        <mxCell id="CQLazfhLL2NqfbZ1QYaW-31" style="edgeStyle=orthogonalEdgeStyle;rounded=0;orthogonalLoop=1;jettySize=auto;html=1;entryX=1.01;entryY=0.997;entryDx=0;entryDy=0;entryPerimeter=0;fillColor=#dae8fc;strokeColor=#6c8ebf;" parent="1" source="0QkTnSWF0Qog_tkl2oPD-97" target="0QkTnSWF0Qog_tkl2oPD-109" edge="1">
          <mxGeometry relative="1" as="geometry">
            <Array as="points">
              <mxPoint x="-610" y="-220" />
              <mxPoint x="-28" y="-220" />
            </Array>
          </mxGeometry>
        </mxCell>
        <mxCell id="CQLazfhLL2NqfbZ1QYaW-32" value="1" style="text;html=1;align=center;verticalAlign=middle;resizable=0;points=[];autosize=1;strokeColor=none;fillColor=none;" parent="1" vertex="1">
          <mxGeometry x="-530" y="-240" width="20" height="20" as="geometry" />
        </mxCell>
        <mxCell id="CQLazfhLL2NqfbZ1QYaW-33" value="N" style="text;html=1;align=center;verticalAlign=middle;resizable=0;points=[];autosize=1;strokeColor=none;fillColor=none;" parent="1" vertex="1">
          <mxGeometry x="-530" y="-220" width="20" height="20" as="geometry" />
        </mxCell>
      </root>
    </mxGraphModel>
  </diagram>
</mxfile>
